<svg width="65" height="65" viewBox="0 0 65 65" fill="none" xmlns="http://www.w3.org/2000/svg">
<circle cx="32.5" cy="32.5" r="32.5" fill="#00AEEF"/>
<path fill-rule="evenodd" clip-rule="evenodd" d="M18.4619 20.9C17.5198 20.9 16.6148 21.2716 15.9463 21.9354C15.2775 22.5995 14.9004 23.5019 14.9004 24.4444V41.5555C14.9004 42.4981 15.2775 43.4004 15.9463 44.0646C16.6148 44.7284 17.5198 45.1 18.4619 45.1H45.5389C46.481 45.1 47.386 44.7284 48.0545 44.0646C48.7233 43.4004 49.1004 42.4981 49.1004 41.5555V24.4444C49.1004 23.5019 48.7233 22.5995 48.0545 21.9354C47.386 21.2716 46.481 20.9 45.5389 20.9H18.4619ZM17.4965 23.4965C17.7512 23.2435 18.0984 23.1 18.4619 23.1H45.5389C45.9024 23.1 46.2496 23.2435 46.5043 23.4965C46.6324 23.6236 46.7318 23.7732 46.7991 23.9355L32.7781 33.5747C32.5503 33.7311 32.2789 33.8156 32.0004 33.8156C31.7219 33.8156 31.4507 33.7313 31.223 33.5749L17.2017 23.9355C17.269 23.7732 17.3684 23.6236 17.4965 23.4965ZM34.0242 35.3878L46.9004 26.5356V41.5555C46.9004 41.9096 46.7588 42.2508 46.5043 42.5035C46.2496 42.7565 45.9024 42.9 45.5389 42.9H18.4619C18.0984 42.9 17.7512 42.7565 17.4965 42.5035C17.242 42.2508 17.1004 41.9096 17.1004 41.5555V26.5355L29.9766 35.3878C30.5719 35.7968 31.278 36.0156 32.0004 36.0156C32.7228 36.0156 33.4289 35.7968 34.0242 35.3878Z" fill="white"/>
</svg>
