<svg width="65" height="65" viewBox="0 0 65 65" fill="none" xmlns="http://www.w3.org/2000/svg">
<circle cx="32.5" cy="32.5" r="32.5" fill="#00AEEF"/>
<path d="M32.0005 24.0156C30.2235 24.0156 28.4865 24.5426 27.009 25.5298C25.5315 26.517 24.38 27.9202 23.7 29.5618C23.02 31.2035 22.842 33.01 23.1887 34.7528C23.5354 36.4956 24.3911 38.0964 25.6475 39.3529C26.904 40.6094 28.5049 41.4651 30.2477 41.8118C31.9905 42.1584 33.7969 41.9805 35.4386 41.3005C37.0803 40.6205 38.4835 39.4689 39.4707 37.9915C40.4579 36.514 40.9848 34.777 40.9848 33C40.9817 30.6182 40.0342 28.3348 38.3499 26.6505C36.6657 24.9663 34.3823 24.0187 32.0005 24.0156ZM32.0005 39.6406C30.6871 39.6406 29.4032 39.2512 28.3111 38.5215C27.2191 37.7918 26.3679 36.7547 25.8653 35.5413C25.3627 34.3279 25.2312 32.9926 25.4874 31.7045C25.7437 30.4163 26.3761 29.2331 27.3048 28.3044C28.2335 27.3757 29.4168 26.7432 30.7049 26.487C31.9931 26.2308 33.3283 26.3623 34.5417 26.8649C35.7551 27.3675 36.7923 28.2186 37.5219 29.3107C38.2516 30.4027 38.6411 31.6866 38.6411 33C38.6411 34.7612 37.9414 36.4503 36.6961 37.6956C35.4507 38.941 33.7617 39.6406 32.0005 39.6406ZM48.7973 33.5547C48.809 33.1856 48.809 32.8145 48.7973 32.4453L51.7915 28.7031C51.9059 28.5599 51.9852 28.3918 52.0228 28.2123C52.0605 28.0329 52.0555 27.8471 52.0083 27.6699C51.5398 25.9045 50.8383 24.2092 49.9223 22.6289C49.8314 22.4685 49.7038 22.3319 49.5501 22.2301C49.3963 22.1282 49.2207 22.0641 49.0376 22.043L44.2622 21.5137C44.0109 21.2442 43.7505 20.9837 43.4809 20.7324L42.9497 15.9551C42.9285 15.7719 42.8644 15.5963 42.7626 15.4426C42.6608 15.2888 42.5241 15.1613 42.3637 15.0703C40.7854 14.157 39.0929 13.4568 37.3305 12.9883C37.1529 12.9419 36.9669 12.9378 36.7874 12.9765C36.6079 13.0152 36.4401 13.0955 36.2973 13.2109L32.5473 16.2129C32.1776 16.2012 31.8077 16.2012 31.438 16.2129L27.7036 13.209C27.5603 13.0945 27.3922 13.0153 27.2128 12.9777C27.0333 12.94 26.8475 12.945 26.6704 12.9922C24.9049 13.4607 23.2097 14.1621 21.6294 15.0781C21.469 15.1691 21.3323 15.2967 21.2305 15.4504C21.1287 15.6041 21.0646 15.7797 21.0434 15.9629L20.5219 20.7383C20.2524 20.9909 19.992 21.2513 19.7407 21.5195L14.9614 22.0625C14.7782 22.0837 14.6026 22.1478 14.4489 22.2496C14.2951 22.3514 14.1676 22.4881 14.0766 22.6484C13.1633 24.2268 12.4632 25.9193 11.9946 27.6817C11.9493 27.8571 11.9453 28.0406 11.9829 28.2179C12.0205 28.3951 12.0987 28.5612 12.2114 28.7031L15.2133 32.4531C15.2016 32.8228 15.2016 33.1928 15.2133 33.5625L12.2094 37.3067C12.095 37.4499 12.0158 37.618 11.9781 37.7975C11.9404 37.9769 11.9454 38.1627 11.9926 38.3399C12.4619 40.102 13.1634 41.7939 14.0786 43.3711C14.1696 43.5315 14.2971 43.6681 14.4508 43.77C14.6046 43.8718 14.7802 43.9359 14.9633 43.957L19.7387 44.4863C19.9913 44.7559 20.2518 45.0163 20.52 45.2676L21.063 50.0391C21.0841 50.2223 21.1482 50.3978 21.25 50.5516C21.3518 50.7053 21.4885 50.8329 21.6489 50.9238C23.2273 51.8372 24.9197 52.5373 26.6821 53.0059C26.8593 53.0531 27.045 53.0581 27.2245 53.0204C27.4039 52.9828 27.572 52.9035 27.7153 52.7891L31.4458 49.7969C31.8149 49.8086 32.186 49.8086 32.5551 49.7969L36.3071 52.8008C36.5151 52.9668 36.7734 53.057 37.0395 53.0567C37.141 53.0563 37.2421 53.0432 37.3403 53.0176C39.1024 52.5483 40.7943 51.8469 42.3715 50.9317C42.5319 50.8407 42.6686 50.7131 42.7704 50.5594C42.8722 50.4057 42.9363 50.2301 42.9575 50.0469L43.4868 45.2715C43.7563 45.0202 44.0167 44.7598 44.268 44.4902L49.0454 43.959C49.2286 43.9378 49.4041 43.8737 49.5579 43.7719C49.7116 43.6701 49.8392 43.5334 49.9301 43.3731C50.8438 41.7949 51.544 40.1023 52.0122 38.3399C52.0594 38.1627 52.0644 37.9769 52.0267 37.7975C51.9891 37.618 51.9098 37.4499 51.7954 37.3067L48.7973 33.5547ZM48.1919 41.6856L43.5747 42.1992C43.2862 42.2325 43.0203 42.3717 42.8286 42.5899C42.4426 43.0247 42.031 43.4362 41.5962 43.8223C41.378 44.014 41.2388 44.2799 41.2055 44.5684L40.6919 49.1836C39.6109 49.7601 38.475 50.2272 37.3012 50.5781L33.6743 47.6758C33.4663 47.5098 33.208 47.4196 32.9419 47.4199H32.8715C32.2913 47.4531 31.7096 47.4531 31.1294 47.4199C30.8396 47.4022 30.5535 47.4927 30.3266 47.6738L26.7016 50.5781C25.5289 50.2253 24.3944 49.7562 23.3149 49.1777L22.8012 44.5645C22.768 44.276 22.6288 44.0101 22.4106 43.8184C21.9757 43.4323 21.5642 43.0208 21.1782 42.5859C20.9865 42.3678 20.7206 42.2286 20.4321 42.1953L15.8169 41.6817C15.241 40.6038 14.7738 39.4712 14.4223 38.3008L17.3247 34.6738C17.5058 34.447 17.5963 34.1609 17.5786 33.8711C17.5454 33.2909 17.5454 32.7092 17.5786 32.1289C17.5963 31.8391 17.5058 31.5531 17.3247 31.3262L14.4223 27.7012C14.7752 26.5285 15.2443 25.3939 15.8227 24.3145L20.436 23.8008C20.7245 23.7675 20.9904 23.6283 21.1821 23.4102C21.5681 22.9753 21.9797 22.5638 22.4145 22.1777C22.6327 21.986 22.7719 21.7202 22.8051 21.4317L23.3188 16.8164C24.3967 16.2405 25.5292 15.7734 26.6997 15.4219L30.3266 18.3242C30.5535 18.5054 30.8396 18.5959 31.1294 18.5781C31.7096 18.5449 32.2913 18.5449 32.8715 18.5781C33.1613 18.5959 33.4474 18.5054 33.6743 18.3242L37.2993 15.4219C38.472 15.7747 39.6066 16.2438 40.686 16.8223L41.1997 21.4395C41.2329 21.728 41.3721 21.9939 41.5903 22.1856C42.0252 22.5716 42.4367 22.9831 42.8227 23.418C43.0144 23.6361 43.2803 23.7753 43.5688 23.8086L48.184 24.3223C48.7597 25.3989 49.2268 26.5301 49.5786 27.6992L46.6762 31.3262C46.4951 31.5531 46.4046 31.8391 46.4223 32.1289C46.4555 32.7092 46.4555 33.2909 46.4223 33.8711C46.4046 34.1609 46.4951 34.447 46.6762 34.6738L49.5786 38.2988C49.227 39.4714 48.7592 40.606 48.1821 41.6856H48.1919Z" fill="white"/>
</svg>
