<svg width="65" height="65" viewBox="0 0 65 65" fill="none" xmlns="http://www.w3.org/2000/svg">
<circle cx="32.5" cy="32.5" r="32.5" fill="#00AEEF"/>
<path fill-rule="evenodd" clip-rule="evenodd" d="M31.9998 18.9C28.0786 18.9 24.8998 22.0788 24.8998 26C24.8998 29.9212 28.0786 33.1 31.9998 33.1C35.921 33.1 39.0998 29.9212 39.0998 26C39.0998 22.0788 35.921 18.9 31.9998 18.9ZM27.0998 26C27.0998 23.2938 29.2936 21.1 31.9998 21.1C34.706 21.1 36.8998 23.2938 36.8998 26C36.8998 28.7062 34.706 30.9 31.9998 30.9C29.2936 30.9 27.0998 28.7062 27.0998 26Z" fill="white"/>
<path fill-rule="evenodd" clip-rule="evenodd" d="M25.3331 35.2333C23.2732 35.2333 21.2977 36.0516 19.8412 37.5081C18.3847 38.9647 17.5664 40.9402 17.5664 43C17.5664 44.1758 18.0335 45.3034 18.8649 46.1348C19.6963 46.9663 20.8239 47.4333 21.9997 47.4333H41.9997C43.1755 47.4333 44.3032 46.9663 45.1346 46.1348C45.966 45.3034 46.4331 44.1758 46.4331 43C46.4331 40.9402 45.6148 38.9647 44.1583 37.5081C42.7017 36.0516 40.7263 35.2333 38.6664 35.2333H25.3331ZM21.3968 39.0638C22.4408 38.0198 23.8567 37.4333 25.3331 37.4333H38.6664C40.1428 37.4333 41.5587 38.0198 42.6026 39.0638C43.6466 40.1077 44.2331 41.5236 44.2331 43C44.2331 43.5923 43.9978 44.1604 43.5789 44.5792C43.1601 44.998 42.5921 45.2333 41.9997 45.2333H21.9997C21.4074 45.2333 20.8394 44.998 20.4205 44.5792C20.0017 44.1604 19.7664 43.5923 19.7664 43C19.7664 41.5236 20.3529 40.1077 21.3968 39.0638Z" fill="white"/>
</svg>
