<svg width="65" height="65" viewBox="0 0 65 65" fill="none" xmlns="http://www.w3.org/2000/svg">
<circle cx="32.5" cy="32.5" r="32.5" fill="#00AEEF"/>
<g clip-path="url(#clip0_21_2311)">
<path d="M32.9997 15.3333C42.2047 15.3333 49.6664 22.795 49.6664 32C49.6664 41.205 42.2047 48.6667 32.9997 48.6667C30.3397 48.6703 27.7177 48.0347 25.3547 46.8133L18.978 48.5917C18.6223 48.691 18.2465 48.6939 17.8892 48.6001C17.532 48.5064 17.206 48.3193 16.9449 48.0582C16.6837 47.797 16.4966 47.4711 16.4029 47.1138C16.3092 46.7565 16.3121 46.3808 16.4114 46.025L18.1914 39.6533C16.9669 37.2882 16.3296 34.6633 16.333 32C16.333 22.795 23.7947 15.3333 32.9997 15.3333ZM32.9997 17.8333C29.2425 17.8333 25.6391 19.3259 22.9823 21.9827C20.3256 24.6394 18.833 28.2428 18.833 32C18.833 34.45 19.4547 36.805 20.6214 38.895L20.8714 39.345L19.018 45.985L25.663 44.1317L26.113 44.3817C28.0037 45.4328 30.1099 46.0371 32.2703 46.148C34.4306 46.259 36.5877 45.8737 38.5761 45.0218C40.5645 44.1699 42.3314 42.874 43.7413 41.2334C45.1512 39.5927 46.1666 37.651 46.7098 35.5571C47.253 33.4632 47.3094 31.2727 46.8748 29.1537C46.4401 27.0346 45.526 25.0432 44.2024 23.3321C42.8789 21.6211 41.181 20.2359 39.2392 19.2827C37.2973 18.3296 35.1629 17.8338 32.9997 17.8333ZM27.583 33.6667H35.0797C35.3964 33.6668 35.7013 33.7871 35.9327 34.0033C36.1641 34.2195 36.3048 34.5155 36.3264 34.8315C36.348 35.1474 36.2488 35.4598 36.049 35.7055C35.8491 35.9512 35.5634 36.1118 35.2497 36.155L35.0797 36.1667H27.583C27.2663 36.1666 26.9615 36.0463 26.73 35.8301C26.4986 35.6138 26.3579 35.3178 26.3363 35.0019C26.3147 34.6859 26.4139 34.3735 26.6137 34.1278C26.8136 33.8822 27.0993 33.7215 27.413 33.6783L27.583 33.6667ZM27.583 27.8333H38.4247C38.7413 27.8339 39.0458 27.9545 39.2769 28.1708C39.508 28.3872 39.6484 28.6831 39.6698 28.999C39.6912 29.3148 39.5919 29.627 39.392 29.8725C39.1922 30.118 38.9066 30.2785 38.593 30.3217L38.4247 30.3333H27.583C27.2663 30.3332 26.9615 30.2129 26.73 29.9967C26.4986 29.7805 26.3579 29.4845 26.3363 29.1685C26.3147 28.8526 26.4139 28.5402 26.6137 28.2945C26.8136 28.0488 27.0993 27.8882 27.413 27.845L27.583 27.8333Z" fill="white"/>
</g>
<defs>
<clipPath id="clip0_21_2311">
<rect width="40" height="40" fill="white" transform="translate(13 12)"/>
</clipPath>
</defs>
</svg>
